<svg width="1328" height="365" viewBox="0 0 1328 365" fill="none" xmlns="http://www.w3.org/2000/svg">
<path d="M228.092 0C253.286 0 273.71 20.424 273.71 45.6183C273.71 47.3319 273.607 49.0225 273.423 50.687H273.71V228.092C273.71 303.675 212.438 364.947 136.855 364.947C61.2721 364.947 0 303.674 0 228.092V50.687H0.287094C0.103055 49.0225 0 47.3319 0 45.6183C0 20.424 20.424 0 45.6183 0C70.8126 0 91.2366 20.424 91.2366 45.6183C91.2366 47.3319 91.1336 49.0225 90.9495 50.687H91.5237C91.3397 49.0225 91.2366 47.3319 91.2366 45.6183C91.2366 20.424 111.661 0 136.855 0C162.049 0 182.473 20.424 182.473 45.6183C182.473 47.3319 182.37 49.0225 182.186 50.687H182.76C182.576 49.0225 182.473 47.3319 182.473 45.6183C182.473 20.424 202.897 0 228.092 0Z" fill="#2A8F52"/>
<path fill-rule="evenodd" clip-rule="evenodd" d="M154.345 81.0992C162.736 81.1038 169.551 87.9068 169.551 96.3052C169.551 98.4253 169.107 100.442 168.323 102.275C172.893 104.072 177.228 106.352 181.282 109.135C189.994 115.007 196.822 122.722 201.685 132.142C207.603 143.609 200.253 155.476 190.281 158.862L183.599 161.11C172.6 164.837 162.708 158.441 158.017 151.298C156.382 148.807 154.511 146.982 152.443 145.656L152.315 145.577L152.196 145.488C148.623 143.043 143.612 141.459 136.505 141.459C128.128 141.459 124.324 143.091 122.873 144.28C121.18 145.67 120.595 146.759 120.408 147.656L120.329 148.497C120.33 150.47 120.856 151.356 121.596 152.051C123.707 153.85 126.744 155.631 130.981 157.219C135.88 158.895 141.327 160.528 147.325 162.099C153.862 163.811 160.39 165.844 166.897 168.168C173.913 170.673 180.437 173.949 186.4 178.038L188.786 179.781C194.165 183.948 198.551 189.108 201.923 195.155C201.938 195.182 201.957 195.217 201.973 195.244C201.989 195.273 202.016 195.304 202.032 195.334C206.369 202.913 208.199 211.878 208.199 221.647C208.198 232.152 205.209 241.839 199.25 250.406L199.24 250.396C193.392 258.869 185.113 265.249 174.946 269.73L174.807 269.79C172.627 270.713 170.359 271.5 168.036 272.215C168.991 274.204 169.551 276.424 169.551 278.779C169.551 286.653 163.561 293.124 155.898 293.906L154.345 293.985H134.069C126.197 293.984 119.721 288 118.942 280.333L118.863 278.779L118.942 277.224C119.046 276.205 119.242 275.213 119.537 274.264C110.234 272.357 101.763 268.98 94.2821 263.959L94.2128 263.909L94.1434 263.87C85.0129 257.518 77.9246 249.167 72.9286 239.011C67.2843 227.535 74.6093 215.757 84.6893 212.45L92.0448 210.044L94.1141 209.48C104.362 207.236 113.42 213.416 117.676 220.578C119.449 223.561 121.498 225.752 123.764 227.349C127.771 230.069 133.357 231.804 141.197 231.804C149.541 231.803 154.446 230.244 157.146 228.419C159.861 226.581 160.274 225.124 160.274 223.646C160.273 220.377 159.388 218.931 158.561 218.103L158.473 218.023L158.393 217.934C156.487 215.938 153.641 213.989 149.474 212.321L149.355 212.272L149.246 212.222C144.572 210.219 139.316 208.453 133.485 206.925C127.018 205.231 120.56 203.29 114.122 201.144L114.053 201.125C107.251 198.802 100.883 195.792 94.9852 192.086C89.3051 188.515 84.512 183.988 80.6698 178.563L79.0262 176.098L78.9774 176.008C75.1928 169.699 73.3421 162.348 72.9383 154.387L72.8495 150.942C72.8503 140.768 75.5179 131.376 80.9872 123.075L81.0165 123.025C86.6588 114.563 94.6155 108.198 104.41 103.809C108.976 101.695 113.899 100.136 119.121 99.0377C119.05 98.6495 118.983 98.2578 118.942 97.8599L118.863 96.3052L118.942 94.7505C119.721 87.0834 126.197 81.0997 134.069 81.0992H154.345Z" fill="white"/>
<path d="M402.474 280.385C382.842 280.385 366.362 275.828 353.034 266.716C341.995 259.018 333.55 248.068 327.7 233.868C325.615 228.806 328.512 223.211 333.693 221.441L355.444 214.007C360.802 212.176 366.515 215.151 369.022 220.228C372.156 226.573 376.012 231.499 380.591 235.005C387.435 239.926 395.54 242.386 404.905 242.386C414.811 242.386 422.015 240.746 426.518 237.466C431.021 234.003 433.272 229.72 433.272 224.617C433.272 219.515 431.381 215.414 427.599 212.316C423.997 209.035 419.044 206.393 412.74 204.388C406.616 202.201 399.862 200.105 392.478 198.101C385.273 196.096 377.979 193.818 370.595 191.267C363.39 188.715 356.636 185.344 350.333 181.152C344.209 176.96 339.256 171.584 335.474 165.023C331.871 158.462 330.07 150.261 330.07 140.42C330.07 129.303 332.862 119.553 338.445 111.17C344.209 102.786 352.404 96.2256 363.03 91.4872C373.837 86.5665 386.714 84.1062 401.663 84.1062C419.314 84.1062 434.443 88.4801 447.051 97.2279C457.405 104.164 465.279 113.788 470.674 126.1C472.858 131.084 470.016 136.668 464.89 138.492L444.618 145.707C439.276 147.608 433.554 144.659 430.756 139.727C427.983 134.84 424.589 131.061 420.575 128.392C414.271 124.018 406.706 121.831 397.881 121.831C388.515 121.831 381.851 123.471 377.889 126.752C374.107 130.032 372.216 133.768 372.216 137.96C372.216 142.516 374.107 146.161 377.889 148.895C381.671 151.628 386.624 153.997 392.748 156.002C398.872 158.007 405.626 160.011 413.01 162.016C420.575 163.839 428.049 166.208 435.434 169.124C442.818 171.857 449.572 175.502 455.696 180.058C461.819 184.432 466.772 190.082 470.555 197.007C474.337 203.933 476.228 212.589 476.228 222.977C476.228 234.277 473.256 244.3 467.313 253.048C461.369 261.613 452.904 268.356 441.917 273.277C430.931 278.015 417.783 280.385 402.474 280.385Z" fill="#0D0D0D"/>
<path d="M550.008 280.385C536.68 280.385 524.792 277.195 514.346 270.817C504.08 264.438 496.065 255.508 490.302 244.027C484.538 232.545 481.657 219.241 481.657 204.115C481.657 188.806 484.538 175.411 490.302 163.93C496.245 152.448 504.44 143.609 514.886 137.413C525.333 131.034 537.22 127.845 550.548 127.845C564.056 127.845 575.943 131.034 586.209 137.413C596.656 143.609 604.76 152.448 610.524 163.93C616.467 175.229 619.439 188.624 619.439 204.115C619.439 206.12 619.349 208.033 619.169 209.856C619.169 213.026 616.599 215.596 613.428 215.596H514.217C508.619 215.596 504.08 211.058 504.08 205.459V198.397C504.08 192.798 508.619 188.26 514.217 188.26H582.17C585.239 188.26 587.039 191.713 585.281 194.228C583.155 197.272 578.18 195.765 577.778 192.074C576.785 182.968 574.552 176.138 571.08 171.584C566.397 165.205 559.553 162.016 550.548 162.016C542.263 162.016 535.599 165.297 530.556 171.857C525.513 178.236 522.991 188.989 522.991 204.115C522.991 218.33 525.603 228.809 530.826 235.552C536.049 242.295 543.253 245.667 552.439 245.667C558.383 245.667 563.516 244.3 567.838 241.566C569.778 240.31 571.468 238.783 572.906 236.985C576.285 232.762 581.411 229.501 586.649 230.844L605.693 235.73C611.172 237.135 614.537 242.822 612.061 247.908C608.036 256.173 601.941 263.172 593.774 268.903C582.607 276.557 568.018 280.385 550.008 280.385Z" fill="#0D0D0D"/>
<path d="M687.089 280.385C671.42 280.385 658.993 275.828 649.807 266.716C640.802 257.604 636.299 243.936 636.299 225.711V109.937C636.299 105.094 639.725 100.927 644.478 99.9911L664.457 96.0564C670.721 94.8226 676.553 99.6177 676.553 106.003V221.064C676.553 228.354 678.444 233.912 682.226 237.739C686.009 241.384 691.322 243.207 698.166 243.207C701.408 243.207 704.38 242.933 707.081 242.386C711.468 241.277 715.727 244.592 715.727 249.117V269.072C715.727 273.522 712.834 277.517 708.467 278.367C706.526 278.744 704.533 279.052 702.489 279.291C697.986 280.02 692.853 280.385 687.089 280.385ZM628.606 165.297C623.007 165.297 618.468 160.758 618.468 155.159V141.81C618.468 136.211 623.007 131.672 628.606 131.672H714.376V165.297H628.606Z" fill="#0D0D0D"/>
<path d="M779.44 280.385C763.771 280.385 751.344 275.828 742.158 266.716C733.153 257.604 728.65 243.936 728.65 225.711V109.937C728.65 105.094 732.076 100.927 736.829 99.9911L756.808 96.0564C763.073 94.8226 768.904 99.6177 768.904 106.003V221.064C768.904 228.354 770.795 233.912 774.578 237.739C778.36 241.384 783.673 243.207 790.517 243.207C793.759 243.207 796.731 242.933 799.432 242.386C803.819 241.277 808.078 244.592 808.078 249.117V269.072C808.078 273.522 805.186 277.517 800.818 278.367C798.877 278.744 796.884 279.052 794.84 279.291C790.337 280.02 785.204 280.385 779.44 280.385ZM710.819 165.297V131.672H796.589C802.188 131.672 806.727 136.211 806.727 141.81V155.159C806.727 160.758 802.188 165.297 796.589 165.297H710.819Z" fill="#0D0D0D"/>
<path d="M825.465 276.557C819.866 276.557 815.328 272.019 815.328 266.42V91.2366C815.328 85.6378 819.866 81.0992 825.465 81.0992H845.444C851.043 81.0992 855.582 85.6379 855.582 91.2366V266.42C855.582 272.019 851.043 276.557 845.444 276.557H825.465Z" fill="#0D0D0D"/>
<path d="M934.978 280.385C921.65 280.385 909.763 277.195 899.316 270.817C889.05 264.438 881.035 255.508 875.272 244.027C869.508 232.545 866.627 219.241 866.627 204.115C866.627 188.806 869.508 175.411 875.272 163.93C881.216 152.448 889.41 143.609 899.857 137.413C910.303 131.034 922.19 127.845 935.518 127.845C949.026 127.845 960.913 131.034 971.179 137.413C981.626 143.609 989.731 152.448 995.494 163.93C1001.44 175.229 1004.41 188.624 1004.41 204.115C1004.41 206.12 1004.32 208.033 1004.14 209.856C1004.14 213.026 1001.57 215.596 998.398 215.596H899.188C893.589 215.596 889.05 211.058 889.05 205.459V198.397C889.05 192.798 893.589 188.26 899.188 188.26H967.14C970.209 188.26 972.009 191.713 970.251 194.228C968.125 197.272 963.15 195.765 962.748 192.074C961.755 182.968 959.522 176.138 956.05 171.584C951.368 165.205 944.523 162.016 935.518 162.016C927.233 162.016 920.569 165.297 915.526 171.857C910.483 178.236 907.962 188.989 907.962 204.115C907.962 218.33 910.573 228.809 915.796 235.552C921.019 242.295 928.224 245.667 937.409 245.667C943.353 245.667 948.486 244.3 952.808 241.566C954.749 240.31 956.438 238.783 957.877 236.985C961.255 232.762 966.381 229.501 971.619 230.844L990.663 235.73C996.143 237.135 999.507 242.822 997.031 247.908C993.006 256.173 986.911 263.172 978.744 268.903C967.577 276.557 952.989 280.385 934.978 280.385Z" fill="#0D0D0D"/>
<path d="M1094.75 280.385C1078 280.385 1063.77 277.286 1052.07 271.09C1040.36 264.712 1031.45 255.781 1025.32 244.3C1019.2 232.819 1016.14 219.423 1016.14 204.115V98.0708C1016.14 92.4721 1020.67 87.9334 1026.27 87.9334H1047.87C1053.47 87.9334 1058.01 92.4721 1058.01 98.0708V201.928C1058.01 214.138 1061.16 223.615 1067.47 230.358C1073.77 237.101 1082.96 240.473 1095.02 240.473C1107.27 240.473 1116.55 237.101 1122.85 230.358C1129.33 223.615 1132.58 214.138 1132.58 201.928V98.0708C1132.58 92.472 1137.11 87.9334 1142.71 87.9334H1163.5C1169.1 87.9334 1173.64 92.4721 1173.64 98.0708V204.115C1173.64 219.423 1170.49 232.819 1164.18 244.3C1158.06 255.781 1149.15 264.712 1137.44 271.09C1125.73 277.286 1111.5 280.385 1094.75 280.385Z" fill="#2A8F52"/>
<path d="M1273.16 280.385C1258.93 280.385 1247.4 274.735 1238.58 263.436C1229.75 251.954 1225.34 235.734 1225.34 214.776V193.454C1225.34 172.313 1229.75 156.093 1238.58 144.794C1247.4 133.495 1258.93 127.845 1273.16 127.845C1284.32 127.845 1293.96 130.943 1302.06 137.14C1310.35 143.154 1316.74 151.81 1321.25 163.11C1325.75 174.409 1328 188.077 1328 204.115C1328 219.97 1325.75 233.639 1321.25 245.12C1316.74 256.419 1310.35 265.167 1302.06 271.363C1293.96 277.378 1284.32 280.385 1273.16 280.385ZM1202.25 324.397C1196.65 324.397 1192.11 319.858 1192.11 314.259V141.81C1192.11 136.211 1196.65 131.672 1202.25 131.672H1222.23C1227.82 131.672 1232.36 136.211 1232.36 141.81V168.919C1232.36 169.419 1232.33 169.919 1232.25 170.413L1227.46 202.57C1227.31 203.594 1227.31 204.635 1227.48 205.657L1232.24 235.581C1232.32 236.108 1232.36 236.64 1232.36 237.174V314.259C1232.36 319.858 1227.82 324.397 1222.23 324.397H1202.25ZM1258.03 243.753C1266.67 243.753 1273.61 240.473 1278.83 233.912C1284.05 227.169 1286.67 217.237 1286.67 204.115C1286.67 190.993 1284.05 181.152 1278.83 174.591C1273.61 167.848 1266.67 164.476 1258.03 164.476C1249.56 164.476 1242.72 167.848 1237.5 174.591C1232.27 181.152 1229.66 190.993 1229.66 204.115C1229.66 217.237 1232.27 227.169 1237.5 233.912C1242.72 240.473 1249.56 243.753 1258.03 243.753Z" fill="#2A8F52"/>
</svg>
